<svg width="84" height="40" viewBox="0 0 84 40" fill="none" xmlns="http://www.w3.org/2000/svg">
<path d="M16.6469 32H3.48688C2.92688 32 2.64688 31.72 2.64688 31.16V7.12C2.64688 6.56 2.92688 6.28 3.48688 6.28H6.88688C7.44688 6.28 7.72688 6.56 7.72688 7.12V27.12C7.72688 27.4133 7.88688 27.56 8.20688 27.56H16.6469C17.1802 27.56 17.4469 27.8533 17.4469 28.44V31.16C17.4469 31.72 17.1802 32 16.6469 32ZM27.6156 27.6H30.4556C31.309 27.6 31.909 27.4267 32.2556 27.08C32.629 26.7067 32.8156 26.0933 32.8156 25.24V13.04C32.8156 12.1867 32.629 11.5867 32.2556 11.24C31.909 10.8667 31.309 10.68 30.4556 10.68H27.6156C26.7623 10.68 26.1623 10.8667 25.8156 11.24C25.469 11.5867 25.2956 12.1867 25.2956 13.04V25.24C25.2956 26.0933 25.469 26.7067 25.8156 27.08C26.1623 27.4267 26.7623 27.6 27.6156 27.6ZM31.2956 32H26.8156C24.709 32 23.0823 31.44 21.9356 30.32C20.789 29.2 20.2156 27.5867 20.2156 25.48V12.8C20.2156 10.6933 20.789 9.08 21.9356 7.96C23.0823 6.84 24.709 6.28 26.8156 6.28H31.2956C33.4023 6.28 35.029 6.84 36.1756 7.96C37.3223 9.08 37.8956 10.6933 37.8956 12.8V25.48C37.8956 27.5867 37.3223 29.2 36.1756 30.32C35.029 31.44 33.4023 32 31.2956 32ZM53.1259 32H48.8859C46.7793 32 45.1526 31.44 44.0059 30.32C42.8593 29.2 42.2859 27.5867 42.2859 25.48V12.8C42.2859 10.6933 42.8593 9.08 44.0059 7.96C45.1526 6.84 46.7793 6.28 48.8859 6.28H53.1259C55.2059 6.28 56.8193 6.85333 57.9659 8C59.1126 9.12 59.6859 10.72 59.6859 12.8V14C59.6859 14.5867 59.4059 14.88 58.8459 14.88H55.4459C54.8859 14.88 54.6059 14.5867 54.6059 14V13.04C54.6059 12.1867 54.4326 11.5867 54.0859 11.24C53.7393 10.8667 53.1393 10.68 52.2859 10.68H49.6859C48.8593 10.68 48.2593 10.8667 47.8859 11.24C47.5393 11.5867 47.3659 12.1867 47.3659 13.04V25.24C47.3659 26.0933 47.5393 26.7067 47.8859 27.08C48.2593 27.4267 48.8593 27.6 49.6859 27.6H52.2859C53.1393 27.6 53.7393 27.4267 54.0859 27.08C54.4326 26.7067 54.6059 26.0933 54.6059 25.24V22.72C54.6059 22.4267 54.4593 22.28 54.1659 22.28H51.7659C51.2059 22.28 50.9259 22 50.9259 21.44V18.72C50.9259 18.16 51.2059 17.88 51.7659 17.88H58.7659C59.3793 17.88 59.6859 18.1867 59.6859 18.8V25.48C59.6859 27.56 59.1126 29.1733 57.9659 30.32C56.8193 31.44 55.2059 32 53.1259 32ZM71.4828 27.6H74.3228C75.1761 27.6 75.7761 27.4267 76.1228 27.08C76.4961 26.7067 76.6828 26.0933 76.6828 25.24V13.04C76.6828 12.1867 76.4961 11.5867 76.1228 11.24C75.7761 10.8667 75.1761 10.68 74.3228 10.68H71.4828C70.6295 10.68 70.0295 10.8667 69.6828 11.24C69.3361 11.5867 69.1628 12.1867 69.1628 13.04V25.24C69.1628 26.0933 69.3361 26.7067 69.6828 27.08C70.0295 27.4267 70.6295 27.6 71.4828 27.6ZM75.1628 32H70.6828C68.5761 32 66.9495 31.44 65.8028 30.32C64.6561 29.2 64.0828 27.5867 64.0828 25.48V12.8C64.0828 10.6933 64.6561 9.08 65.8028 7.96C66.9495 6.84 68.5761 6.28 70.6828 6.28H75.1628C77.2695 6.28 78.8961 6.84 80.0428 7.96C81.1895 9.08 81.7628 10.6933 81.7628 12.8V25.48C81.7628 27.5867 81.1895 29.2 80.0428 30.32C78.8961 31.44 77.2695 32 75.1628 32Z" fill="#DDE3F0"/>
</svg>
